<mxfile host="app.diagrams.net" agent="Mozilla/5.0 (Windows NT 10.0; Win64; x64) AppleWebKit/537.36 (KHTML, like Gecko) Chrome/139.0.0.0 Safari/537.36" version="28.1.1" pages="2">
  <diagram id="2EAPARg88MX4jUNNIOvm" name="Halaman-2">
    <mxGraphModel dx="1213" dy="811" grid="1" gridSize="10" guides="1" tooltips="1" connect="1" arrows="1" fold="1" page="1" pageScale="1" pageWidth="827" pageHeight="1169" math="0" shadow="0">
      <root>
        <mxCell id="0" />
        <mxCell id="1" parent="0" />
        <mxCell id="3gk2Hx1XH8FJ9kdPt1Dn-1" value="Admin" style="shape=umlActor;verticalLabelPosition=bottom;verticalAlign=top;html=1;outlineConnect=0;" parent="1" vertex="1">
          <mxGeometry x="160" y="150" width="30" height="60" as="geometry" />
        </mxCell>
        <mxCell id="3gk2Hx1XH8FJ9kdPt1Dn-2" value="Guru" style="shape=umlActor;verticalLabelPosition=bottom;verticalAlign=top;html=1;outlineConnect=0;" parent="1" vertex="1">
          <mxGeometry x="640" y="150" width="30" height="60" as="geometry" />
        </mxCell>
        <mxCell id="3gk2Hx1XH8FJ9kdPt1Dn-3" value="Siswa" style="shape=umlActor;verticalLabelPosition=bottom;verticalAlign=top;html=1;outlineConnect=0;" parent="1" vertex="1">
          <mxGeometry x="640" y="300" width="30" height="60" as="geometry" />
        </mxCell>
        <mxCell id="3gk2Hx1XH8FJ9kdPt1Dn-6" value="Monitoring Kelas" style="swimlane;whiteSpace=wrap;html=1;" parent="1" vertex="1">
          <mxGeometry x="250" y="120" width="330" height="640" as="geometry" />
        </mxCell>
      </root>
    </mxGraphModel>
  </diagram>
  <diagram id="bNV7zWn8z0pM_qpgZ-g6" name="Halaman-3">
    <mxGraphModel dx="2205" dy="1475" grid="1" gridSize="10" guides="1" tooltips="1" connect="1" arrows="1" fold="1" page="1" pageScale="1" pageWidth="827" pageHeight="1169" math="0" shadow="0">
      <root>
        <mxCell id="0" />
        <mxCell id="1" parent="0" />
        <mxCell id="Q76fb723zj7u44x_3VJo-11" style="edgeStyle=orthogonalEdgeStyle;rounded=0;orthogonalLoop=1;jettySize=auto;html=1;" parent="1" source="Q76fb723zj7u44x_3VJo-3" target="Q76fb723zj7u44x_3VJo-5" edge="1">
          <mxGeometry relative="1" as="geometry" />
        </mxCell>
        <mxCell id="Q76fb723zj7u44x_3VJo-3" value="start" style="ellipse;whiteSpace=wrap;html=1;" parent="1" vertex="1">
          <mxGeometry x="70" y="20" width="120" height="80" as="geometry" />
        </mxCell>
        <mxCell id="Q76fb723zj7u44x_3VJo-12" style="edgeStyle=orthogonalEdgeStyle;rounded=0;orthogonalLoop=1;jettySize=auto;html=1;entryX=0.5;entryY=0;entryDx=0;entryDy=0;" parent="1" source="Q76fb723zj7u44x_3VJo-5" target="Q76fb723zj7u44x_3VJo-6" edge="1">
          <mxGeometry relative="1" as="geometry" />
        </mxCell>
        <mxCell id="Q76fb723zj7u44x_3VJo-20" style="edgeStyle=orthogonalEdgeStyle;rounded=0;orthogonalLoop=1;jettySize=auto;html=1;" parent="1" source="Q76fb723zj7u44x_3VJo-5" target="Q76fb723zj7u44x_3VJo-9" edge="1">
          <mxGeometry relative="1" as="geometry">
            <Array as="points">
              <mxPoint x="220" y="150" />
            </Array>
          </mxGeometry>
        </mxCell>
        <mxCell id="Q76fb723zj7u44x_3VJo-5" value="Login user" style="rounded=0;whiteSpace=wrap;html=1;" parent="1" vertex="1">
          <mxGeometry x="70" y="120" width="120" height="60" as="geometry" />
        </mxCell>
        <mxCell id="Q76fb723zj7u44x_3VJo-13" style="edgeStyle=orthogonalEdgeStyle;rounded=0;orthogonalLoop=1;jettySize=auto;html=1;entryX=0.5;entryY=0;entryDx=0;entryDy=0;" parent="1" source="Q76fb723zj7u44x_3VJo-6" target="Q76fb723zj7u44x_3VJo-7" edge="1">
          <mxGeometry relative="1" as="geometry" />
        </mxCell>
        <mxCell id="Q76fb723zj7u44x_3VJo-45" style="edgeStyle=orthogonalEdgeStyle;rounded=0;orthogonalLoop=1;jettySize=auto;html=1;entryX=0.5;entryY=0;entryDx=0;entryDy=0;" parent="1" source="Q76fb723zj7u44x_3VJo-6" target="Q76fb723zj7u44x_3VJo-24" edge="1">
          <mxGeometry relative="1" as="geometry">
            <Array as="points">
              <mxPoint x="585" y="260" />
              <mxPoint x="585" y="70" />
              <mxPoint x="1100" y="70" />
            </Array>
          </mxGeometry>
        </mxCell>
        <mxCell id="Q76fb723zj7u44x_3VJo-6" value="sudah register?" style="rhombus;whiteSpace=wrap;html=1;" parent="1" vertex="1">
          <mxGeometry x="30" y="220" width="80" height="80" as="geometry" />
        </mxCell>
        <mxCell id="Q76fb723zj7u44x_3VJo-15" style="edgeStyle=orthogonalEdgeStyle;rounded=0;orthogonalLoop=1;jettySize=auto;html=1;entryX=0.5;entryY=0;entryDx=0;entryDy=0;" parent="1" source="Q76fb723zj7u44x_3VJo-7" target="Q76fb723zj7u44x_3VJo-8" edge="1">
          <mxGeometry relative="1" as="geometry" />
        </mxCell>
        <mxCell id="Q76fb723zj7u44x_3VJo-7" value="register akun" style="rounded=0;whiteSpace=wrap;html=1;" parent="1" vertex="1">
          <mxGeometry x="10" y="350" width="120" height="60" as="geometry" />
        </mxCell>
        <mxCell id="Q76fb723zj7u44x_3VJo-17" style="edgeStyle=orthogonalEdgeStyle;rounded=0;orthogonalLoop=1;jettySize=auto;html=1;entryX=0;entryY=0.5;entryDx=0;entryDy=0;" parent="1" source="Q76fb723zj7u44x_3VJo-8" target="Q76fb723zj7u44x_3VJo-9" edge="1">
          <mxGeometry relative="1" as="geometry" />
        </mxCell>
        <mxCell id="Q76fb723zj7u44x_3VJo-8" value="Notif user baru registrasi ke Admin&amp;nbsp;&amp;nbsp;" style="rounded=0;whiteSpace=wrap;html=1;" parent="1" vertex="1">
          <mxGeometry x="10" y="450" width="120" height="60" as="geometry" />
        </mxCell>
        <mxCell id="Q76fb723zj7u44x_3VJo-22" style="edgeStyle=orthogonalEdgeStyle;rounded=0;orthogonalLoop=1;jettySize=auto;html=1;entryX=0.5;entryY=0;entryDx=0;entryDy=0;" parent="1" source="Q76fb723zj7u44x_3VJo-9" target="Q76fb723zj7u44x_3VJo-10" edge="1">
          <mxGeometry relative="1" as="geometry" />
        </mxCell>
        <mxCell id="Q76fb723zj7u44x_3VJo-9" value="disetujui" style="rhombus;whiteSpace=wrap;html=1;" parent="1" vertex="1">
          <mxGeometry x="180" y="530" width="80" height="80" as="geometry" />
        </mxCell>
        <mxCell id="Q76fb723zj7u44x_3VJo-10" value="user tidak bisa login" style="rounded=0;whiteSpace=wrap;html=1;" parent="1" vertex="1">
          <mxGeometry x="160" y="650" width="120" height="60" as="geometry" />
        </mxCell>
        <mxCell id="Q76fb723zj7u44x_3VJo-14" value="Tidak" style="text;html=1;align=center;verticalAlign=middle;whiteSpace=wrap;rounded=0;" parent="1" vertex="1">
          <mxGeometry x="60" y="310" width="60" height="30" as="geometry" />
        </mxCell>
        <mxCell id="Q76fb723zj7u44x_3VJo-21" value="Iya" style="text;html=1;align=center;verticalAlign=middle;whiteSpace=wrap;rounded=0;" parent="1" vertex="1">
          <mxGeometry x="210" y="500" width="60" height="30" as="geometry" />
        </mxCell>
        <mxCell id="Q76fb723zj7u44x_3VJo-23" value="Tidak" style="text;html=1;align=center;verticalAlign=middle;whiteSpace=wrap;rounded=0;" parent="1" vertex="1">
          <mxGeometry x="210" y="610" width="60" height="30" as="geometry" />
        </mxCell>
        <mxCell id="Q76fb723zj7u44x_3VJo-47" style="edgeStyle=orthogonalEdgeStyle;rounded=0;orthogonalLoop=1;jettySize=auto;html=1;entryX=0.5;entryY=0;entryDx=0;entryDy=0;" parent="1" source="Q76fb723zj7u44x_3VJo-24" target="Q76fb723zj7u44x_3VJo-25" edge="1">
          <mxGeometry relative="1" as="geometry" />
        </mxCell>
        <mxCell id="Q76fb723zj7u44x_3VJo-56" style="edgeStyle=orthogonalEdgeStyle;rounded=0;orthogonalLoop=1;jettySize=auto;html=1;entryX=0;entryY=0.5;entryDx=0;entryDy=0;" parent="1" source="Q76fb723zj7u44x_3VJo-24" target="Q76fb723zj7u44x_3VJo-54" edge="1">
          <mxGeometry relative="1" as="geometry" />
        </mxCell>
        <mxCell id="Q76fb723zj7u44x_3VJo-24" value="Role akun" style="rhombus;whiteSpace=wrap;html=1;" parent="1" vertex="1">
          <mxGeometry x="950" y="160" width="80" height="80" as="geometry" />
        </mxCell>
        <mxCell id="Q76fb723zj7u44x_3VJo-50" style="edgeStyle=orthogonalEdgeStyle;rounded=0;orthogonalLoop=1;jettySize=auto;html=1;entryX=1;entryY=0.5;entryDx=0;entryDy=0;" parent="1" source="Q76fb723zj7u44x_3VJo-25" target="Q76fb723zj7u44x_3VJo-29" edge="1">
          <mxGeometry relative="1" as="geometry" />
        </mxCell>
        <mxCell id="Q76fb723zj7u44x_3VJo-51" style="edgeStyle=orthogonalEdgeStyle;rounded=0;orthogonalLoop=1;jettySize=auto;html=1;entryX=1;entryY=0.5;entryDx=0;entryDy=0;" parent="1" source="Q76fb723zj7u44x_3VJo-25" target="Q76fb723zj7u44x_3VJo-30" edge="1">
          <mxGeometry relative="1" as="geometry">
            <Array as="points">
              <mxPoint x="670" y="380" />
              <mxPoint x="610" y="380" />
              <mxPoint x="610" y="470" />
            </Array>
          </mxGeometry>
        </mxCell>
        <mxCell id="Q76fb723zj7u44x_3VJo-52" style="edgeStyle=orthogonalEdgeStyle;rounded=0;orthogonalLoop=1;jettySize=auto;html=1;entryX=0.5;entryY=0;entryDx=0;entryDy=0;" parent="1" source="Q76fb723zj7u44x_3VJo-25" target="Q76fb723zj7u44x_3VJo-28" edge="1">
          <mxGeometry relative="1" as="geometry" />
        </mxCell>
        <mxCell id="Q76fb723zj7u44x_3VJo-53" style="edgeStyle=orthogonalEdgeStyle;rounded=0;orthogonalLoop=1;jettySize=auto;html=1;entryX=0.5;entryY=0;entryDx=0;entryDy=0;" parent="1" source="Q76fb723zj7u44x_3VJo-25" target="Q76fb723zj7u44x_3VJo-32" edge="1">
          <mxGeometry relative="1" as="geometry">
            <Array as="points">
              <mxPoint x="690" y="530" />
              <mxPoint x="580" y="530" />
            </Array>
          </mxGeometry>
        </mxCell>
        <mxCell id="Q76fb723zj7u44x_3VJo-25" value="Dashboard admin" style="rounded=0;whiteSpace=wrap;html=1;" parent="1" vertex="1">
          <mxGeometry x="650" y="295" width="120" height="60" as="geometry" />
        </mxCell>
        <mxCell id="Q76fb723zj7u44x_3VJo-61" style="edgeStyle=orthogonalEdgeStyle;rounded=0;orthogonalLoop=1;jettySize=auto;html=1;entryX=1;entryY=0.5;entryDx=0;entryDy=0;" parent="1" source="Q76fb723zj7u44x_3VJo-26" target="Q76fb723zj7u44x_3VJo-33" edge="1">
          <mxGeometry relative="1" as="geometry" />
        </mxCell>
        <mxCell id="Q76fb723zj7u44x_3VJo-62" style="edgeStyle=orthogonalEdgeStyle;rounded=0;orthogonalLoop=1;jettySize=auto;html=1;entryX=0.5;entryY=0;entryDx=0;entryDy=0;" parent="1" source="Q76fb723zj7u44x_3VJo-26" target="Q76fb723zj7u44x_3VJo-35" edge="1">
          <mxGeometry relative="1" as="geometry" />
        </mxCell>
        <mxCell id="Q76fb723zj7u44x_3VJo-63" style="edgeStyle=orthogonalEdgeStyle;rounded=0;orthogonalLoop=1;jettySize=auto;html=1;entryX=0.5;entryY=0;entryDx=0;entryDy=0;" parent="1" source="Q76fb723zj7u44x_3VJo-26" target="Q76fb723zj7u44x_3VJo-34" edge="1">
          <mxGeometry relative="1" as="geometry">
            <Array as="points">
              <mxPoint x="1050" y="380" />
              <mxPoint x="913" y="380" />
            </Array>
          </mxGeometry>
        </mxCell>
        <mxCell id="Q76fb723zj7u44x_3VJo-73" style="edgeStyle=orthogonalEdgeStyle;rounded=0;orthogonalLoop=1;jettySize=auto;html=1;" parent="1" source="Q76fb723zj7u44x_3VJo-26" edge="1">
          <mxGeometry relative="1" as="geometry">
            <mxPoint x="1490" y="600" as="targetPoint" />
            <Array as="points">
              <mxPoint x="1300" y="330" />
              <mxPoint x="1300" y="600" />
            </Array>
          </mxGeometry>
        </mxCell>
        <mxCell id="Q76fb723zj7u44x_3VJo-26" value="Dashboard guru" style="rounded=0;whiteSpace=wrap;html=1;" parent="1" vertex="1">
          <mxGeometry x="1040" y="295" width="120" height="60" as="geometry" />
        </mxCell>
        <mxCell id="Q76fb723zj7u44x_3VJo-68" style="edgeStyle=orthogonalEdgeStyle;rounded=0;orthogonalLoop=1;jettySize=auto;html=1;entryX=0.5;entryY=0;entryDx=0;entryDy=0;" parent="1" source="Q76fb723zj7u44x_3VJo-27" target="Q76fb723zj7u44x_3VJo-37" edge="1">
          <mxGeometry relative="1" as="geometry" />
        </mxCell>
        <mxCell id="Q76fb723zj7u44x_3VJo-70" style="edgeStyle=orthogonalEdgeStyle;rounded=0;orthogonalLoop=1;jettySize=auto;html=1;" parent="1" source="Q76fb723zj7u44x_3VJo-27" target="Q76fb723zj7u44x_3VJo-38" edge="1">
          <mxGeometry relative="1" as="geometry" />
        </mxCell>
        <mxCell id="Q76fb723zj7u44x_3VJo-75" style="edgeStyle=orthogonalEdgeStyle;rounded=0;orthogonalLoop=1;jettySize=auto;html=1;entryX=0.5;entryY=0;entryDx=0;entryDy=0;" parent="1" source="Q76fb723zj7u44x_3VJo-27" target="Q76fb723zj7u44x_3VJo-41" edge="1">
          <mxGeometry relative="1" as="geometry" />
        </mxCell>
        <mxCell id="Q76fb723zj7u44x_3VJo-27" value="Dashboard siswa" style="rounded=0;whiteSpace=wrap;html=1;" parent="1" vertex="1">
          <mxGeometry x="1430" y="295" width="120" height="60" as="geometry" />
        </mxCell>
        <mxCell id="Q76fb723zj7u44x_3VJo-28" value="Menambah/Mengedit Data Guru &amp;amp; Siswa&amp;nbsp;&amp;nbsp;" style="rounded=0;whiteSpace=wrap;html=1;" parent="1" vertex="1">
          <mxGeometry x="690" y="570" width="120" height="60" as="geometry" />
        </mxCell>
        <mxCell id="Q76fb723zj7u44x_3VJo-29" value="Menambah/Mengedit Data Kelas&amp;nbsp;&amp;nbsp;" style="rounded=0;whiteSpace=wrap;html=1;" parent="1" vertex="1">
          <mxGeometry x="360" y="330" width="120" height="60" as="geometry" />
        </mxCell>
        <mxCell id="Q76fb723zj7u44x_3VJo-30" value="Monitoring Aktivitas Kelas&amp;nbsp;&amp;nbsp;" style="rounded=0;whiteSpace=wrap;html=1;" parent="1" vertex="1">
          <mxGeometry x="360" y="440" width="120" height="60" as="geometry" />
        </mxCell>
        <mxCell id="Q76fb723zj7u44x_3VJo-60" style="edgeStyle=orthogonalEdgeStyle;rounded=0;orthogonalLoop=1;jettySize=auto;html=1;entryX=0.5;entryY=0;entryDx=0;entryDy=0;" parent="1" source="Q76fb723zj7u44x_3VJo-32" target="Q76fb723zj7u44x_3VJo-36" edge="1">
          <mxGeometry relative="1" as="geometry">
            <Array as="points">
              <mxPoint x="580" y="780" />
              <mxPoint x="940" y="780" />
            </Array>
          </mxGeometry>
        </mxCell>
        <mxCell id="Q76fb723zj7u44x_3VJo-32" value="Mengekspor Laporan Aktivitas&amp;nbsp;&amp;nbsp;" style="rounded=0;whiteSpace=wrap;html=1;" parent="1" vertex="1">
          <mxGeometry x="520" y="570" width="120" height="60" as="geometry" />
        </mxCell>
        <mxCell id="Q76fb723zj7u44x_3VJo-33" value="Input: Membuat Materi/Tugas&amp;nbsp;&amp;nbsp;" style="shape=parallelogram;html=1;strokeWidth=2;perimeter=parallelogramPerimeter;whiteSpace=wrap;rounded=1;arcSize=12;size=0.23;" parent="1" vertex="1">
          <mxGeometry x="853" y="295" width="133" height="60" as="geometry" />
        </mxCell>
        <mxCell id="Q76fb723zj7u44x_3VJo-65" style="edgeStyle=orthogonalEdgeStyle;rounded=0;orthogonalLoop=1;jettySize=auto;html=1;entryX=1;entryY=0;entryDx=0;entryDy=0;" parent="1" source="Q76fb723zj7u44x_3VJo-34" target="Q76fb723zj7u44x_3VJo-36" edge="1">
          <mxGeometry relative="1" as="geometry" />
        </mxCell>
        <mxCell id="Q76fb723zj7u44x_3VJo-34" value="memberi feedback" style="rounded=0;whiteSpace=wrap;html=1;" parent="1" vertex="1">
          <mxGeometry x="853" y="420" width="120" height="60" as="geometry" />
        </mxCell>
        <mxCell id="Q76fb723zj7u44x_3VJo-35" value="Monitoring Kehadiran &amp;amp; Tugas Siswa&amp;nbsp;&amp;nbsp;" style="rounded=0;whiteSpace=wrap;html=1;" parent="1" vertex="1">
          <mxGeometry x="1020" y="420" width="120" height="60" as="geometry" />
        </mxCell>
        <mxCell id="Q76fb723zj7u44x_3VJo-36" value="end" style="ellipse;whiteSpace=wrap;html=1;" parent="1" vertex="1">
          <mxGeometry x="880" y="800" width="120" height="80" as="geometry" />
        </mxCell>
        <mxCell id="Q76fb723zj7u44x_3VJo-69" style="edgeStyle=orthogonalEdgeStyle;rounded=0;orthogonalLoop=1;jettySize=auto;html=1;entryX=1;entryY=0.5;entryDx=0;entryDy=0;" parent="1" source="Q76fb723zj7u44x_3VJo-37" target="Q76fb723zj7u44x_3VJo-36" edge="1">
          <mxGeometry relative="1" as="geometry" />
        </mxCell>
        <mxCell id="Q76fb723zj7u44x_3VJo-37" value="Output: Lihat Nilai &amp;amp; Feedback&amp;nbsp;&amp;nbsp;" style="shape=parallelogram;html=1;strokeWidth=2;perimeter=parallelogramPerimeter;whiteSpace=wrap;rounded=1;arcSize=12;size=0.23;" parent="1" vertex="1">
          <mxGeometry x="1180" y="670" width="160" height="60" as="geometry" />
        </mxCell>
        <mxCell id="Q76fb723zj7u44x_3VJo-38" value="Output: Akses Materi&amp;nbsp;&amp;nbsp;" style="shape=parallelogram;html=1;strokeWidth=2;perimeter=parallelogramPerimeter;whiteSpace=wrap;rounded=1;arcSize=12;size=0.23;" parent="1" vertex="1">
          <mxGeometry x="1330" y="480" width="160" height="60" as="geometry" />
        </mxCell>
        <mxCell id="Q76fb723zj7u44x_3VJo-40" value="Input: Memberi Nilai&amp;nbsp;&amp;nbsp;" style="shape=parallelogram;html=1;strokeWidth=2;perimeter=parallelogramPerimeter;whiteSpace=wrap;rounded=1;arcSize=12;size=0.23;" parent="1" vertex="1">
          <mxGeometry x="1470" y="580" width="160" height="60" as="geometry" />
        </mxCell>
        <mxCell id="Q76fb723zj7u44x_3VJo-41" value="Input: Upload Tugas&amp;nbsp;&amp;nbsp;" style="shape=parallelogram;html=1;strokeWidth=2;perimeter=parallelogramPerimeter;whiteSpace=wrap;rounded=1;arcSize=12;size=0.23;" parent="1" vertex="1">
          <mxGeometry x="1730" y="460" width="160" height="60" as="geometry" />
        </mxCell>
        <mxCell id="Q76fb723zj7u44x_3VJo-42" value="Notif Nilai ke Siswa&amp;nbsp;&amp;nbsp;" style="shape=parallelogram;html=1;strokeWidth=2;perimeter=parallelogramPerimeter;whiteSpace=wrap;rounded=1;arcSize=12;size=0.23;" parent="1" vertex="1">
          <mxGeometry x="1450" y="680" width="160" height="60" as="geometry" />
        </mxCell>
        <mxCell id="Q76fb723zj7u44x_3VJo-43" value="Notif Pengumpulan&amp;nbsp;&lt;div&gt;Tugas ke Guru&amp;nbsp;&amp;nbsp;&lt;/div&gt;" style="shape=parallelogram;html=1;strokeWidth=2;perimeter=parallelogramPerimeter;whiteSpace=wrap;rounded=1;arcSize=12;size=0.23;" parent="1" vertex="1">
          <mxGeometry x="1710" y="570" width="160" height="60" as="geometry" />
        </mxCell>
        <mxCell id="Q76fb723zj7u44x_3VJo-46" value="Iya" style="text;html=1;align=center;verticalAlign=middle;whiteSpace=wrap;rounded=0;" parent="1" vertex="1">
          <mxGeometry x="1100" y="120" width="60" height="30" as="geometry" />
        </mxCell>
        <mxCell id="Q76fb723zj7u44x_3VJo-58" style="edgeStyle=orthogonalEdgeStyle;rounded=0;orthogonalLoop=1;jettySize=auto;html=1;entryX=0.5;entryY=0;entryDx=0;entryDy=0;" parent="1" source="Q76fb723zj7u44x_3VJo-54" target="Q76fb723zj7u44x_3VJo-26" edge="1">
          <mxGeometry relative="1" as="geometry">
            <Array as="points">
              <mxPoint x="1100" y="240" />
            </Array>
          </mxGeometry>
        </mxCell>
        <mxCell id="Q76fb723zj7u44x_3VJo-59" style="edgeStyle=orthogonalEdgeStyle;rounded=0;orthogonalLoop=1;jettySize=auto;html=1;entryX=0.5;entryY=0;entryDx=0;entryDy=0;" parent="1" source="Q76fb723zj7u44x_3VJo-54" target="Q76fb723zj7u44x_3VJo-27" edge="1">
          <mxGeometry relative="1" as="geometry" />
        </mxCell>
        <mxCell id="Q76fb723zj7u44x_3VJo-54" value="Role akun" style="rhombus;whiteSpace=wrap;html=1;" parent="1" vertex="1">
          <mxGeometry x="1260" y="160" width="80" height="80" as="geometry" />
        </mxCell>
        <mxCell id="Q76fb723zj7u44x_3VJo-55" value="Admin" style="text;html=1;align=center;verticalAlign=middle;whiteSpace=wrap;rounded=0;" parent="1" vertex="1">
          <mxGeometry x="720" y="260" width="60" height="30" as="geometry" />
        </mxCell>
        <mxCell id="Q76fb723zj7u44x_3VJo-57" value="Bukan admin" style="text;html=1;align=center;verticalAlign=middle;whiteSpace=wrap;rounded=0;" parent="1" vertex="1">
          <mxGeometry x="1190" y="160" width="60" height="30" as="geometry" />
        </mxCell>
        <mxCell id="Q76fb723zj7u44x_3VJo-66" value="Guru" style="text;html=1;align=center;verticalAlign=middle;whiteSpace=wrap;rounded=0;" parent="1" vertex="1">
          <mxGeometry x="1100" y="265" width="60" height="30" as="geometry" />
        </mxCell>
        <mxCell id="Q76fb723zj7u44x_3VJo-67" value="Siswa" style="text;html=1;align=center;verticalAlign=middle;whiteSpace=wrap;rounded=0;" parent="1" vertex="1">
          <mxGeometry x="1490" y="265" width="60" height="30" as="geometry" />
        </mxCell>
        <mxCell id="Q76fb723zj7u44x_3VJo-72" style="edgeStyle=orthogonalEdgeStyle;rounded=0;orthogonalLoop=1;jettySize=auto;html=1;entryX=0.623;entryY=-0.059;entryDx=0;entryDy=0;entryPerimeter=0;" parent="1" source="Q76fb723zj7u44x_3VJo-40" target="Q76fb723zj7u44x_3VJo-42" edge="1">
          <mxGeometry relative="1" as="geometry" />
        </mxCell>
        <mxCell id="Q76fb723zj7u44x_3VJo-76" style="edgeStyle=orthogonalEdgeStyle;rounded=0;orthogonalLoop=1;jettySize=auto;html=1;entryX=0.62;entryY=0.016;entryDx=0;entryDy=0;entryPerimeter=0;" parent="1" source="Q76fb723zj7u44x_3VJo-41" target="Q76fb723zj7u44x_3VJo-43" edge="1">
          <mxGeometry relative="1" as="geometry" />
        </mxCell>
      </root>
    </mxGraphModel>
  </diagram>
</mxfile>
